<svg data-name="Layer 1" xmlns="http://www.w3.org/2000/svg" width="979" height="640" viewBox="0 0 979 640"><path d="M979 640H0V0h979zM2 638h975V2H2z" fill="#3f3d56"/><path fill="#3f3d56" d="M20 16h472v608H20z"/><path fill="#7bb1ba" d="M489 16h472v608H489z"/><path d="M622.883 581.691a61.764 61.764 0 01-3.074-6.562c-3.938-9.844 3.692-17.674 4.02-18.003l.298-.3-.007-.422c-.087-5.458-2.194-133.965-8.51-159.226-5.702-22.811-23.346-29.038-27.46-30.195l.01-.113-20.29-2.6c7.593-50.006 15.203-165.635-70.758-189.446a55.486 55.486 0 00-9.082-1.498l-.186 1.99a54.749 54.749 0 018.73 1.434c84.452 23.394 76.827 137.818 69.311 187.266l-30.726-3.938c-8.002-4.49-17.04-12.546-18.1-34.165a56.446 56.446 0 0019.769-36.699 3.67 3.67 0 00.43.026c4.448 0 8.066-5.204 8.066-11.6s-3.618-11.6-8.066-11.6a3.447 3.447 0 00-2.438.87 56.393 56.393 0 00-45.677-39.515l-.285 1.98a54.129 54.129 0 010 107.13l.285 1.98a55.506 55.506 0 0026-11.028c1.37 20.195 9.988 28.798 17.363 33.378-8.43 11.529-22.086 18.509-40.625 20.731-.99.12-1.98.22-2.97.308l.178 1.992c1.01-.09 2.02-.192 3.03-.313 19.144-2.295 33.29-9.556 42.055-21.585l.346.044.196.11.043-.08L586 368.61l-14.757 170.764-.005.056.001.055c.001.007.04 1.577.04 4.34v.232l.001.001a418.972 418.972 0 01-2.205 45.122c-1.654 14.862-4.166 26.234-7.467 33.82h-25.89a23.556 23.556 0 011.416-6.88l2.315-6.638-4.074 5.728a39.582 39.582 0 01-7.993 7.79H489v2h39.035l.263-.191a44.427 44.427 0 005.78-5.037 21.651 21.651 0 00-.368 4.248l.019.98h71.062l.233-.137c4.256-2.49 4.256-7.09 4.256-15.443 0-5.24 3.519-8.758 7.244-12.483a41.375 41.375 0 005.308-6.042c3.182-4.773 3.049-5.437 1.05-9.204zm-87.404-312.625c.757-.81.961-1.026 1.779-1.026 3.288 0 6.066 4.396 6.066 9.6 0 5.169-2.74 9.54-6 9.6a2.242 2.242 0 00-.272-.497c.087-1.26.145-2.526.145-3.804a55.436 55.436 0 00-1.763-13.825zm42.069 287.488l-5.972 27.875c1.346-14.257 1.655-28.184 1.702-36.39zm42.62 33.231a39.844 39.844 0 01-5.058 5.736c-3.85 3.851-7.83 7.832-7.83 13.899 0 8.194-.119 11.708-3.042 13.58H563.78c3.196-7.712 5.635-18.919 7.255-33.35l2.142-3.15 6.474-30.214-6.371-12.702a198.414 198.414 0 00-.039-4.093l14.733-170.482c4.326 1.279 20.379 7.386 25.696 28.653 6.088 24.355 8.308 150.278 8.443 158.375-1.517 1.705-8.123 9.933-4.162 19.834a63.735 63.735 0 003.165 6.758c1.695 3.193 1.695 3.193-.948 7.156z" fill="#3f3d56"/><path d="M489.37 174.74v223.35l-43.65 5.09-38.9 4.55-13.61 1.58v.01l-.64.07s-2.25-6.89-4.02-20.63c-3.06-23.75-4.69-67.96 9.26-132.37 18.61-85.97 74.7-84.23 91.56-81.65zm-3 408.11l3 .15v40.92H350.94l2.95-11.14 3.72-14.04 17.28-17.28 3.92-3.92 107.56 5.31z" fill="#2f2e41"/><path d="M489.37 228.82V336.9a55.126 55.126 0 11-10.92-109.16 54.483 54.483 0 0110.36.98c.19.03.37.06.56.1z" fill="#ffb9b9"/><path d="M489.37 319.57v117.11l-43.65-33.5-25.57-19.62 20.43-9.29c.92-.41 1.88-.85 2.89-1.31 15.23-6.92 17.8-25.61 17.75-37.73a76.883 76.883 0 00-.79-11.03z" fill="#ffb9b9"/><path d="M486.37 382.79c1-.09 2-.19 3-.31v241.44h-16.02c-10.19-3.09-18.22-6.1-18.22-6.1s-48.76-6.36-63.6-4.24l-2.92.42c-8.95 1.28-25.92 3.37-34.72-1.22-8.77-4.57-9.44-15.77 13.96-41q3.075-3.315 6.72-6.96s31.8-21.2 27.56-27.56-10.6-33.92-10.6-33.92l.1-5.45 1.58-88.57v-.01l.44-24.69 46.93-10.35 8.19 6.11a132.038 132.038 0 0037.6 2.41z" fill="#575a89"/><path d="M400.532 623.921h-25.31l9.95-3.98s3.86.71 9.38 2.22c1.84.5 3.86 1.08 5.98 1.76z" fill="#ffb9b9"/><path d="M402.132 488.501c-3.27 1.23-6.85 4.65-10.5 9.39-15.32 19.85-31.9 62.69-31.9 62.69s5.59 5.59 8.12 11.2c1.29 2.86 1.79 5.73.36 7.88-4.24 6.36 0 0 4.24 0 1.65 0 2.34.64 2.44 1.8.15 1.82-1.15 4.92-2.44 8.8-2.12 6.36 0 8.48 10.6 10.6s4.24 2.12 4.24 8.48a10.076 10.076 0 001.32 4.66 28.867 28.867 0 007.16 8.06c-.42.03-.82.06-1.22.1a32.504 32.504 0 00-8.31 1.76h-54.27a12.767 12.767 0 002.32-3.98c2.12-6.36-14.84-16.96-16.96-19.08s-2.12-10.6 0-19.08-2.12-8.48-6.36-12.72 0-10.6 4.24-16.96 4.24-4.24-2.12-16.96 6.36-14.84 6.36-14.84 27.56-57.24 42.4-91.16c9.81-22.43 20.56-34.67 26.7-40.38a38.905 38.905 0 015.1-4.14l10.6 4.24s1.23 7.71 2.57 18.86c3.34 27.6 7.39 76.25-4.69 80.78z" fill="#575a89"/><path d="M489.37 210.71v17.09c-.18.31-.37.61-.56.92-11.06 18.15-30.79 43.1-61.11 56.71l-2.72-15.97-5.67-33.28z" fill="#2f2e41"/><path d="M256.192 538.941c.03 63.031-37.43 85.054-83.649 85.077q-1.61 0-3.205-.034-3.213-.068-6.36-.29c-41.715-2.933-74.138-26.053-74.166-84.671-.03-60.663 77.464-137.257 83.276-142.92.005 0 .005 0 .01-.005.221-.216.334-.324.334-.324s83.73 80.141 83.76 143.167z" fill="#7bb1ba"/><path d="M169.492 614.378l30.589-42.782-30.663 47.477-.08 4.91q-3.213-.067-6.36-.29l3.268-63.057-.026-.488.056-.093.31-5.958-30.785-47.566 30.876 43.102.078 1.263 2.468-47.643-26.36-49.154 26.68 40.782 2.545-98.778.01-.329v.324l-.393 77.896 26.197-30.894-26.307 37.603-.673 42.66 24.467-40.951-24.561 47.222-.374 23.721 35.507-57.002-35.642 65.277zM826.1 442.123a439.833 439.833 0 00-41.976-48.071l-.688-.658-1.046.994c-8.558 8.339-83.608 83.216-83.578 143.635.031 65.812 40.082 82.934 74.117 85.592v.006l.98.07c2.1.149 4.257.247 6.405.292h.007l1 .02v-.008c.692.01 1.383.023 2.078.023h.144c25.337-.013 45.467-6.46 59.83-19.162 16.483-14.575 24.834-37.088 24.82-66.915-.017-32.833-22.899-70.228-42.092-95.818zm-26.735 83.37l-19.042 34.874-.88 56.2 7.846-10.976-7.866 12.18-.068 4.18-.696-.024q-1.511-.052-3.008-.138c-.207-.012-.415-.023-.622-.036l3.216-62.065.002-.053-.012-.232.368-6.578-7.937-12.262 6.03 8.418.06.977 1.998-.01 2.468-47.642.013-.279-15.643-29.173 15.731 24.048-.459 29.182 8.984-15.036-9.016 17.334-.435 27.561zm-98.553 12.53c-.012-25.13 13.195-55.913 39.254-91.494a446.631 446.631 0 0141.96-48.97l-2.401 93.093-24.925-38.101-1.718 1.02 26.228 48.91-2.25 43.434-29.347-40.966-1.652 1.125 30.61 47.294-.28 5.382-.087.142.041.745-3.213 61.981c-33.18-2.609-72.19-19.349-72.22-83.596zm94.931-78.858l-13.815 19.746.092-3.562zm-12.201 162.853c-.734-.002-1.46-.014-2.188-.024l.06-3.618 30.506-47.237-1.653-1.125-28.725 40.175.773-49.296 35.524-65.061-1.727-1.008-33.601 53.944.313-19.882 24.451-47.013-1.745-.974-22.549 37.742.609-38.616 26.13-37.351-1.581-1.22-24.42 28.798.37-73.432c10.732 10.646 82.075 83.61 82.103 141.121.034 69.457-44.926 84.058-82.65 84.077z" fill="#3f3d56"/></svg>