<svg data-name="Layer 1" xmlns="http://www.w3.org/2000/svg" width="1053.449" height="822" viewBox="0 0 1053.449 822"><path fill="#d0cde1" d="M157.24 64.207l90.706-37.099L549.66 764.792l-90.707 37.1zM0 84.41l90.706-37.1L379.66 753.793l-90.706 37.099zm333.24-43.203l90.706-37.099L725.66 741.792l-90.707 37.1z"/><ellipse cx="487.449" cy="773.5" rx="290" ry="48.5" fill="#3f3d56"/><path d="M964.514 625.08l-2.184-.667-815.248-248.67 2.243-1.119 559.65-279.472.44.913zM152.461 375.293l808.268 246.54L708.056 97.849z" fill="#3f3d56"/><path fill="#7bb1ba" d="M850.449 515h203v194h-203zm-217-515h203v194h-203zm-573 278h203v194h-203z"/><path d="M447.949 248.5h-6l-25.5 92.5s-.5 61.5 5.5 91.5c0 0 10-13 17-13s13.5-65.5 13.5-65.5 27.5-93.5-4.5-105.5z" fill="#3f3d56"/><path d="M579.949 425.5s-16 45-1 48 23-35 19-40-18-8-18-8zm-159.627-9.297s4.498 47.548 19.362 43.933 6.07-41.438.333-44.282-19.695.349-19.695.349zM458.949 694.5s7 34-5 43 4 28 4 28l38-40s-16-25-15-40zm60 31l-4 27-1 19 22-2 3-39-20-5z" fill="#a0616a"/><path d="M434.281 420.969S421.95 425.5 422.95 438.5s4 54 4 54-9 88 0 118 26 90 26 90 26 5 32-14c0 0-1-65-12-79s-3-18-2-20 4-5 4-8 1-14 1-18-1-3 1-9 4-8 4-9 17-54 17-54l22 123s-5 121-3 121 24 8 32 0c0 0 20-104 16-110s-5-7-4-13 3-9 1-12-5-13-2-16 4-17 4-17 17-98 6-112-135.668-32.532-135.668-32.532z" fill="#2f2e41"/><path d="M467.949 738.5s-12-15-16-8-10 18-10 18-45 39-20 40 41-17 41-17 4-20 16-20l2 5 22-14s-3.098-26.551-12.05-25.776zm42 30s26-10 29 0 3 15 3 15 22 36 0 38-32-12-32-12 3-17 0-19 0-22 0-22z" fill="#2f2e41"/><circle cx="527.949" cy="181.5" r="35" fill="#a0616a"/><path d="M501.949 189.5l-7 39 49 12s-11.5-28.5 1-41c3.162-3.162-43-10-43-10z" fill="#a0616a"/><path d="M497.931 211.885a6.382 6.382 0 00-4.982 4.615 26.629 26.629 0 01-4 8s-47 22-47 25 19 67 19 67 1 40-7 49-16 42-14 45-14 10-8 15 90 53 140 31c0 0 1-9 0-15s6-26 4-33 0-79 0-79l10.306-85.257a6.938 6.938 0 00-4.868-7.475c-11.525-3.503-38.254-17.845-41.938-14.768-4.77 3.984-34.536 1.27-41.518-10.115z" fill="#3f3d56"/><path d="M576.949 236.5l.064-.026a6.936 6.936 0 018.18 2.344c6.197 8.48 19.238 27.537 20.756 39.682 2 16 8 59 7 65s-2 7 0 10 1 2 0 5-13 86-13 86-8-18-23-12c0 0 2-16 0-21s-4-8-2-12 0-43-1-47 0-25 0-25l-9-41z" fill="#3f3d56"/><path d="M521.412 187.459l1.182-8.241c.276-1.921 1.4-4.447 3.269-3.925 1.59.445 5.052 1.805 5.632 1.395 2.172-1.538 5.457 1.151 7.74-.215.957-.573 1.582-1.8 2.693-1.881a3.067 3.067 0 011.977.895 13.454 13.454 0 005.117 2.78 5.504 5.504 0 005.386-1.468 2.86 2.86 0 01.953-.913 2.137 2.137 0 011.37.063l5.834 1.588a22.418 22.418 0 00-3-18.457 37.122 37.122 0 00-8.497-8.321q-5.42-4.123-11.185-7.756c-4.208-2.658-8.67-5.165-13.59-5.912-4.92-.748-10.429.59-13.523 4.486a8.708 8.708 0 01-3.132-4.231 3.205 3.205 0 00.206 4.914l-4.934-3.15c-1.387 1.456 1.323 4.097.142 5.724a3.015 3.015 0 01-1.329.867 22.619 22.619 0 00-7.234 4.554c-2.836 2.843-4.376 6.703-5.698 10.496-2.94 8.435-5.077 18.108-.9 26.003.474.896 6.725 15.67 7.558 16.246 2.815 1.948.983-2.766 3 0 1.582 2.169 1.286-6.132 3.637-4.31a5.86 5.86 0 006.379.287c.975-.676.66-4.43.135-7.877a4.061 4.061 0 014.94-4.569c2.929.689 5.822 1.278 5.872.928z" fill="#2f2e41"/><path d="M569.602 267.111L578.45 367s-18.694-83.777-8.847-99.889z" opacity=".1"/><path fill="#3f3d56" d="M716.165 74.307l52 23-52 22v-45z"/><path d="M238.516 452.519h-154v-154h154zm-151.861-2.14h149.722V300.658H86.655z" fill="#d0cde1"/><path fill="#3f3d56" d="M114.46 347.226h94.111v8.584H114.46zm0 24h94.111v8.584H114.46zm0 24h94.111v8.584H114.46z"/><path d="M1026.622 648.957h-150v-73h150zm-148-2h146v-69h-146z" fill="#d0cde1"/><circle cx="917.622" cy="612.457" r="11" fill="#3f3d56"/><circle cx="951.622" cy="612.457" r="11" fill="#3f3d56"/><circle cx="985.622" cy="612.457" r="11" fill="#3f3d56"/><path d="M809.949 133.5h-150v-73h150zm-148-2h146v-69h-146z" fill="#d0cde1"/></svg>