<svg data-name="Layer 1" xmlns="http://www.w3.org/2000/svg" width="1075.565" height="723" viewBox="0 0 1075.565 723"><path fill="#3f3d56" d="M618.018 721h457.546v2H618.018zm-35-29h457.546v2H583.018zm-145-29h457.546v2H438.018zm-108.766-87.424c-2.774 0-5.577-.043-8.328-.13l.063-1.997c3.95.123 7.981.157 11.95.102l.027 2q-1.853.025-3.712.025zm15.745-.463l-.117-1.997c3.956-.233 7.963-.561 11.91-.974l.208 1.988a264.28 264.28 0 01-12 .983zm-36.095-.312c-3.99-.306-8.02-.706-11.983-1.192l.244-1.985c3.932.482 7.932.88 11.891 1.183zm60.039-2.2l-.3-1.976c3.93-.596 7.892-1.289 11.77-2.06l.39 1.962a265.194 265.194 0 01-11.86 2.075zm-83.935-.73a263.656 263.656 0 01-11.824-2.284l.425-1.955c3.874.842 7.822 1.604 11.733 2.266zm107.548-3.963l-.48-1.94a261.855 261.855 0 0011.532-3.135l.568 1.918a263.16 263.16 0 01-11.62 3.157zm-131.076-1.146a260.895 260.895 0 01-11.563-3.363l.603-1.907a258.788 258.788 0 0011.474 3.336zm154.158-5.701l-.656-1.889a260.518 260.518 0 0011.194-4.183l.742 1.857a262.205 262.205 0 01-11.28 4.215zm-177.145-1.567a260.892 260.892 0 01-11.228-4.425l.776-1.844a259.472 259.472 0 0011.142 4.392zm199.474-7.368l-.828-1.82a260.012 260.012 0 0010.742-5.184l.91 1.782a262.677 262.677 0 01-10.824 5.222zm21.399-10.938l-.99-1.737a263.482 263.482 0 0010.229-6.148l1.068 1.69a262.414 262.414 0 01-10.307 6.195zm20.323-12.858l-1.145-1.638a263.933 263.933 0 009.631-7.06l1.219 1.585a263.958 263.958 0 01-9.705 7.113zm-304.826-2.816a265.57 265.57 0 01-9.585-7.302l1.248-1.562a263.434 263.434 0 009.512 7.245zm323.903-11.846l-1.289-1.529a264.608 264.608 0 008.953-7.91l1.358 1.469a265.731 265.731 0 01-9.022 7.97zm-342.728-3.185a264.415 264.415 0 01-8.877-8.14l1.385-1.443a262.994 262.994 0 008.81 8.079zm360.4-13.161l-1.423-1.405a264.72 264.72 0 008.201-8.695l1.487 1.338a265.715 265.715 0 01-8.264 8.762zm-377.772-3.512a266.276 266.276 0 01-8.097-8.91l1.511-1.31a262.75 262.75 0 008.035 8.841zm393.893-14.38l-1.545-1.27a263.012 263.012 0 007.378-9.409l1.602 1.198a263.12 263.12 0 01-7.435 9.481zm-409.67-3.797a264.117 264.117 0 01-7.25-9.604l1.623-1.168a263.74 263.74 0 007.194 9.532zm424.099-15.497l-1.655-1.123a260.987 260.987 0 006.493-10.048l1.705 1.047a265.351 265.351 0 01-6.543 10.124zm-438.151-4.03a265.45 265.45 0 01-6.34-10.219l1.723-1.016a263.257 263.257 0 006.292 10.142zm450.766-16.51l-1.75-.967a262.08 262.08 0 005.546-10.606l1.793.886a263.568 263.568 0 01-5.59 10.687zm10.68-21.621l-1.831-.803a260.771 260.771 0 004.548-11.078l1.868.717a263.028 263.028 0 01-4.584 11.164zM86.38 413.659a262.336 262.336 0 01-4.364-11.19l1.88-.684a260.229 260.229 0 004.33 11.105zm492.551-18.215l-1.898-.63a258.877 258.877 0 003.5-11.425l1.925.541a262.358 262.358 0 01-3.527 11.514zM78.163 391.06a262.855 262.855 0 01-3.323-11.574l1.934-.508a260.876 260.876 0 003.298 11.486zm507.286-18.795l-1.949-.453a260.334 260.334 0 002.434-11.698l1.967.36a261.694 261.694 0 01-2.452 11.79zm-513.394-4.494a263.187 263.187 0 01-2.244-11.83l1.973-.328c.65 3.915 1.399 7.864 2.227 11.74zm517.752-19.184l-1.982-.271c.538-3.917.992-7.911 1.35-11.872l1.992.18a262.908 262.908 0 01-1.36 11.963zm-521.694-4.566a266.03 266.03 0 01-1.151-11.985l1.995-.146c.29 3.964.674 7.965 1.143 11.894zm523.869-19.41l-1.998-.09c.178-3.962.268-7.982.268-11.946h2c0 3.995-.09 8.044-.27 12.037zM66.356 320.01a270.104 270.104 0 01-.104-7.435q0-2.308.04-4.608l2 .035q-.04 2.282-.04 4.573c0 2.462.035 4.946.103 7.38zm2.41-23.948l-1.996-.125c.25-3.996.595-8.032 1.024-11.996l1.988.215c-.426 3.935-.767 7.94-1.016 11.906zm520.195-12.201c-.4-3.943-.949-5.866-1.529-9.791l1.979-.292c.584 3.955 1.085 6.975 1.488 10.947zM71.339 272.31l-1.976-.305a262.471 262.471 0 012.116-11.854l1.96.396a260.683 260.683 0 00-2.1 11.763zm514.074-10.015a262.672 262.672 0 00-2.558-11.673l1.943-.472c.943 3.873 1.81 7.83 2.578 11.76zM76.077 248.893l-1.94-.486c.97-3.874 2.046-7.78 3.197-11.61l1.915.576a261.203 261.203 0 00-3.172 11.52zm503.684-9.813a260.237 260.237 0 00-3.622-11.387l1.89-.65a261.593 261.593 0 013.652 11.474zm-496.8-13.1l-1.886-.663a261.612 261.612 0 014.265-11.291l1.854.75a259.626 259.626 0 00-4.233 11.204zm489.034-9.495a262.4 262.4 0 00-4.645-10.98l1.824-.82a263.712 263.712 0 014.68 11.063zM91.938 203.783l-1.818-.835a263.149 263.149 0 015.285-10.843l1.777.917a260.731 260.731 0 00-5.244 10.76zm470.268-9.036a261.672 261.672 0 00-5.636-10.515l1.74-.985a262.897 262.897 0 015.68 10.596zm-459.291-12.23l-1.733-.998a265.272 265.272 0 016.253-10.306l1.686 1.076a262.127 262.127 0 00-6.206 10.228zm447.541-8.535a263.895 263.895 0 00-6.577-9.962l1.643-1.14a264.834 264.834 0 016.628 10.039zM115.788 162.36l-1.635-1.153a265.428 265.428 0 017.167-9.687l1.58 1.225a263.361 263.361 0 00-7.112 9.615zm421.064-7.993a263.18 263.18 0 00-7.462-9.327l1.533-1.284c2.56 3.055 5.09 6.217 7.519 9.398zm-406.41-10.898l-1.523-1.297a265.874 265.874 0 018.015-8.991l1.462 1.364a264.959 264.959 0 00-7.955 8.924zm391.07-7.409a263.902 263.902 0 00-8.283-8.613l1.41-1.42a266.879 266.879 0 018.345 8.68zm-374.766-10.064l-1.398-1.43a266.203 266.203 0 018.795-8.22l1.332 1.492a262.91 262.91 0 00-8.729 8.158zm357.818-6.78a264.071 264.071 0 00-9.035-7.828l1.275-1.54a266.496 266.496 0 019.104 7.887zm-340-9.131l-1.262-1.551a265.356 265.356 0 019.502-7.384l1.191 1.606a263.525 263.525 0 00-9.43 7.329zm19.182-14.218l-1.116-1.659a264.434 264.434 0 0110.13-6.484l1.04 1.709a263.366 263.366 0 00-10.054 6.434zm20.388-12.4l-.96-1.756a264.286 264.286 0 0110.674-5.527l.879 1.797a261.601 261.601 0 00-10.593 5.485zm241.37-4.635a261.413 261.413 0 00-10.835-5.09l.809-1.83a262.975 262.975 0 0110.919 5.13zm-219.948-5.844l-.795-1.835a262.669 262.669 0 0111.128-4.522l.71 1.87a260.255 260.255 0 00-11.043 4.487zm198.052-3.834a260.268 260.268 0 00-11.266-4.072l.637-1.897c3.8 1.276 7.62 2.657 11.351 4.104zm-175.743-4.637l-.623-1.9c3.8-1.247 7.678-2.42 11.525-3.487l.535 1.927a259.456 259.456 0 00-11.437 3.46zm153.063-2.974a259.981 259.981 0 00-11.563-3.01l.459-1.946c3.888.917 7.808 1.937 11.653 3.032zm-130.041-3.415l-.446-1.95a262.07 262.07 0 0111.797-2.41l.356 1.968c-3.902.704-7.84 1.508-11.707 2.392zm106.787-2.067a260.698 260.698 0 00-11.79-1.933l.277-1.98c3.96.555 7.958 1.21 11.882 1.947zM294.4 53.884l-.265-1.983a266.66 266.66 0 0111.967-1.32l.174 1.993c-3.951.345-7.947.785-11.876 1.31zm59.616-1.148c-3.94-.371-7.95-.657-11.919-.849l.098-1.998c3.999.194 8.039.482 12.009.856zm-35.814-.93l-.084-1.997c3.675-.153 7.421-.232 11.135-.233l.906.002-.006 2-.9-.002c-3.685.001-7.404.08-11.051.23z"/><path d="M778.46 233.362l-5 34s-22 44-8 89l18-11s14-54 14-58 6-51 6-51z" fill="#ffb9b9"/><path d="M788.46 342.362l-24 16 12 59s3 80 2 83-19 125-19 125 21 10 40 4c0 0 19-90 19-116l22-91 34 104s2 70 6 93 4 26 4 26 32 9 40 0c0 0-4-118-7-130l-7-143z" fill="#2f2e41"/><path d="M767.46 625.362s-2-3-8 5-25 23-25 23-52 37-13 39 46-18 46-18 33-6 34-13-4-35-4-35zm119 18s-7 24-5 34-4 47 24 44 19-35 19-35l-9-41z" fill="#2f2e41"/><circle cx="846.961" cy="86.862" r="33" fill="#ffb9b9"/><path d="M827.46 104.362s10 35 2 48 54 2 58-10c0 0-20-22-17-43z" fill="#ffb9b9"/><path d="M843.46 151.362s27.375 1.85 40.688-13.075l49.313 21.075-21 116s42 98 4 107-148 0-143-33 25-73 25-73 5-44-6-64-4-43-4-43l44.018-29.165s1.982 11.165 10.982 11.165z" fill="#575a89"/><path d="M800.46 170.362h-12s-14 3-11 41l-7 27s35 9 40 4-10-72-10-72z" fill="#575a89"/><path d="M945.46 230.362l-4 35s5 46-12 82l-6 18s-6 52-22 52 0-59 0-59l8-59s6-23 2-33-5-31-5-31z" fill="#ffb9b9"/><path d="M838.853 65.269a131.945 131.945 0 0114.787-1.466c3.589-.153 7.327-.129 10.57 1.416 4.889 2.328 7.628 7.592 9.422 12.701s3.065 10.57 6.392 14.844c5.536-5.779 6.642-14.37 7.466-22.329.58-5.598 1.094-11.567-1.495-16.565-1.594-3.078-4.225-5.477-6.89-7.695-12.719-10.587-28.874-18.917-45.25-16.539l-.384 2.529a45.157 45.157 0 00-8.354.525l.585 6.273-8.699.551-.333 6.538-8.798.305a10.193 10.193 0 003.069 6.627 12.392 12.392 0 01-4.519 2.041c1.467 5.68 2.891 11.371 4.407 17.038 1.116 4.174.917 7.861 5.394 5.824 3.409-1.55 5.715-6.483 9.161-8.52 4.06-2.401 8.866-3.378 13.47-4.098z" fill="#2f2e41"/><path d="M919.46 160.362h14s23 77 19 78-51 4-51 4z" fill="#575a89"/><circle cx="323.961" cy="307.862" r="81" fill="#7bb1ba"/><path fill="#fff" d="M374.961 299.862h-43v-43h-16v43h-43v16h43v43h16v-43h43v-16z"/><path fill="#f2f2f2" d="M71.609 444.69h110.153v128.333H71.609z"/><path d="M224.54 574.092h-154v-154h154zm-151.862-2.138H222.4V422.23H72.678z" fill="#3f3d56"/><path fill="#3f3d56" d="M102.622 465.009h94.111v2.139h-94.111zm0 23.528h94.111v2.139h-94.111zm0 23.528h94.111v2.139h-94.111z"/><path fill="#f2f2f2" d="M224.792 22.835h222V133h-222z"/><path d="M491.792 134h-268V0h268zm-266-2h264V2h-264z" fill="#3f3d56"/><path fill="#3f3d56" d="M263.822 55.917H407.76v2H263.822zm0 21H407.76v2H263.822zm0 21H407.76v2H263.822z"/><path fill="#f2f2f2" d="M529.961 300.862h95v101h-95z"/><path d="M648.96 402.862h-120v-120h120zm-118-2h116v-116h-116z" fill="#3f3d56"/><path fill="#3f3d56" d="M544.461 337.362h66v2h-66zm0 13h66v2h-66zm0 13h66v2h-66zM129.018 132h457.546v2H129.018zm334.443 268.862h251v2h-251zM0 572.862h295.078v2H0z"/></svg>